<?xml version="1.0" encoding="UTF-8"?>
<svg id="Capa_1" data-name="Capa 1" xmlns="http://www.w3.org/2000/svg" viewBox="0 0 841.89 595.28">
  <defs>
    <style>
      .cls-1 {
        fill: #f8f8f6;
      }

      .cls-1, .cls-2, .cls-3, .cls-4 {
        stroke-width: 0px;
      }

      .cls-2 {
        fill: #0f1010;
      }

      .cls-3 {
        fill: #f9f8f6;
      }

      .cls-4 {
        fill: #0f0f0f;
      }
    </style>
  </defs>
  <path class="cls-1" d="M642.38,103.8c.41,32.99-8.58,63.69-23,92.97-2.25,4.58-2.12,7.77.89,11.97,22.03,30.66,41.81,62.84,62.64,94.31,4.99,7.54,5.02,7.42-.66,14.37-16.24,19.85-33.07,39.08-52.07,56.45-28.84,26.36-61.93,44.88-99.15,56.32-2.52.77-5.04,1.61-7.6,2.2-10.92,2.49-19.65,7.78-27.4,16.36-16.1,17.83-36.43,29.19-60.5,32.17-30.28,3.76-57.46-3.99-80.64-24.33-5.51-4.84-10.74-9.99-15.31-15.73-2-2.51-4.69-3.6-7.51-4.54-20.28-6.77-40.68-13.19-59.95-22.7-32.32-15.93-59.62-38.35-84.14-64.42-10.72-11.39-20.89-23.27-30.87-35.32-1.89-2.28-2.02-3.48-.18-6.18,16.92-24.94,33.54-50.08,50.25-75.16,5.7-8.55,11.27-17.19,17.17-25.6,1.86-2.64,2.17-4.62.64-7.56-10.25-19.72-17.66-40.48-21.6-62.36-5.73-31.81-2.79-63.07,6.89-93.79.67-2.11,1.68-3.07,4.14-2.96,12.56.53,24.43,4.07,35.96,8.6,34.52,13.53,63.5,34.22,83.35,66.22,1.92,3.09,3.6,2.03,5.63,1.08,17.36-8.15,35.74-12.71,54.7-14.65,17.91-1.83,35.85-1.57,53.8.64,18.6,2.29,36.8,6.05,54.08,13.28,5.06,2.12,6.84,1.11,9.78-3.22,27.02-39.9,64.64-63.5,112.04-71.62,7.31-1.25,7.36-1.01,9.63,6.08,5.97,18.58,8.98,37.64,9,57.14Z"/>
  <path class="cls-3" d="M162.4,162.45c-7.08,12.32-14.03,24.27-20.86,36.29-18.2,32.01-36.31,64.07-54.59,96.03-1.5,2.63-1.48,4.4,0,7.01,24.42,42.9,48.71,85.88,73.02,128.84.38.67.76,1.35,1.46,2.58-11.75,0-22.86.41-33.91-.16-6.22-.32-11-4.09-14.21-9.68-19.99-34.8-40.03-69.56-60.06-104.33-1.49-2.58-2.82-5.27-4.46-7.75-5.4-8.12-4.67-16.17-.05-24.28,20.2-35.43,40.38-70.86,60.58-106.29,1.55-2.72,3.4-5.3,4.71-8.13,3.4-7.33,9.63-10.59,17.08-10.94,10.24-.48,20.55-.43,31.29.8Z"/>
  <path class="cls-3" d="M679.61,161.84c10.98,0,21.14-.06,31.3.02,7.6.06,13.28,3.46,17.1,10.1,22.2,38.66,44.47,77.27,66.63,115.95,4.06,7.09,3.46,14.33-.52,21.27-19.84,34.66-39.74,69.29-59.61,103.94-1.89,3.29-4.05,6.46-5.61,9.9-3.41,7.53-9.66,10.08-17.25,10.19-10.09.15-20.18.04-30.61.04,9.67-17.02,19.12-33.61,28.54-50.22,14.83-26.13,29.5-52.37,44.63-78.33,2.87-4.92,2.38-8.44-.24-12.99-24.12-41.94-48.07-83.98-72.06-125.99-.56-.97-1.14-1.93-2.28-3.87Z"/>
  <path class="cls-4" d="M438.96,296.43c-.22-16.38,2.25-31.32,11.01-44.44,9.98-14.96,24.89-22.45,42.1-25.67,29.39-5.5,55.5,3.75,80.19,18.63,22.35,13.47,41.4,31.1,60.52,48.63,7.12,6.53,14.04,13.29,21.41,19.52,2.91,2.46,2.8,4.01.74,6.74-23.87,31.82-52.9,57.66-88.07,76.44-9.17,4.9-18.71,8.86-28.48,12.36-3.33,1.19-3.92.52-4.74-2.76-7.63-30.61-24.98-54.51-50.97-72.15-6.3-4.27-13.07-7.65-21.16-7.55-6.13.08-10.93,2.23-14.62,7.02-.68.89-1.05,2.23-2.52,2.07-2.07-.22-1.33-2.04-1.55-3.15-2.37-12.07-3.98-24.23-3.84-35.7Z"/>
  <path class="cls-4" d="M403.91,294.73c-.61,13.66-2.18,25.5-4.2,37.29-.18,1.07,0,2.83-1.71,3.23-1.66.38-2.16-.94-2.98-2.02-5.65-7.5-11.62-9.47-20.96-6.31-15.37,5.21-27.27,15.48-37.88,27.29-13.25,14.75-22.75,31.65-27.26,51.1-.85,3.65-2.1,3.9-5.51,2.6-38.12-14.5-70.28-37.58-97.86-67.36-6.22-6.71-12.2-13.63-17.59-21.02-1.1-1.51-3.17-2.98-.52-5.39,23.4-21.21,45.35-44.1,71.46-62.19,16.66-11.55,34.35-21.21,54.38-25.15,25.63-5.05,49.92-2,70.55,15.76,11.08,9.54,15.65,22.64,18.13,36.56,1.02,5.71,1.45,11.52,1.94,15.62Z"/>
  <path class="cls-4" d="M244.33,191.89c-11.93-29.91-18.31-60.77-17.27-93,.22-6.63,1.57-13.14,2.96-19.63.61-2.85,2.08-3.21,4.69-2.57,11.47,2.82,21.17,9.04,30.58,15.78,16.28,11.66,29.21,25.88,34.95,45.68.69,2.4.54,3.61-1.45,4.91-20.25,13.19-37.29,29.93-53.06,48.07-.3.35-.85.48-1.4.77Z"/>
  <path class="cls-2" d="M598.3,192.27c-8.37-9.72-17.19-18.71-26.25-27.46-8.39-8.1-17.34-15.54-26.87-22.2-2.84-1.98-2.8-3.71-1.99-6.42,5.87-19.84,19.54-33.46,35.86-44.88,8.79-6.15,17.93-11.62,28.56-14.36,3.79-.98,4.74.43,5.33,3.36,2.16,10.78,3.42,21.66,2.82,32.67-1.48,27.21-6.62,53.64-17.45,79.28Z"/>
  <path class="cls-2" d="M457.48,451.24c-23.73,14.58-47.6,13.01-71.58,0,3.61,0,7.22-.08,10.83.02,4.72.13,9.24-.45,13.24-3.2,3.37-2.31,5.3-5.39,5.02-9.64-.26-3.84-3.14-4.91-6.04-6.35-14.23-7.05-22.54-18.7-24.99-34.23-1.93-12.21,4.72-20.01,17.05-20.27,13.81-.29,27.63-.31,41.43,0,12.78.29,19.65,9.99,16.31,23.18-3.54,13.97-11.47,24.86-24.75,31.18-3.52,1.67-6.31,3.09-6.19,7.74.13,4.68,2.67,7.43,6.31,9.32,4.37,2.26,9.21,2.46,14.07,2.27,3.09-.12,6.19-.02,9.29-.02Z"/>
  <path id="leftPupil" class="cls-1" d="M525.97,279.49c0,12.43-5.64,21.6-15.52,25.18-10.17,3.68-22.37-.23-30.26-9.56-.93-1.1-1.33-1.64,0-2.63,10.57-7.91,20.36-17.26,33-21.71,10.48-3.68,12.86-2.75,12.79,8.71Z"/>
  <path id="rightPupil" class="cls-1" d="M363.18,293.51c-6.97,7.95-14.97,13.56-25.82,12.44-17.25-1.78-22.41-17.75-21.06-30.04.76-6.91,2.69-7.95,9.51-6.13,9.97,2.66,17.87,8.97,25.99,14.87,3.86,2.8,7.54,5.86,11.38,8.86Z"/>
</svg>